# xmcd
#
# Track frame offsets:
#	150
#	13991
#	29084
#	43755
#	58599
#	75266
#	87828
#	105980
#	119588
#	134013
#	152266
#	166456
#	185249
#	201014
#	202022
#	202713
#	203339
#	204012
#	204787
#	205484
#	206205
#	206953
#	207853
#	208826
#	209580
#	210279
#	210991
#	211812
#	212552
#	213347
#	214087
#	214945
#	215838
#	216565
#	217254
#
# Disc length: 2903 seconds
#
# Revision: 1
# Processed by: cddbd v1.5.2PL0 Copyright (c) Steve Scherf et al.
# Submitted via: audiograbber 1.83.01
#
DISCID=3c0b5523
DTITLE=Various Artist - CDX Volume 651 (July 24, 2017)
DYEAR=2017
DGENRE=Country
TTITLE0=Chris Stapleton - Broken Halos
TTITLE1=Darius Rucker - For The First Time
TTITLE2=Michael Ray - Get To You
TTITLE3=Brandon Lay - Speakers, Bleachers and Preachers
TTITLE4=Mickey Lamantia - 23 rd Psalm
TTITLE5=James Robert Webb - American Beauty
TTITLE6=Rebel Hearts - Baby Doll
TTITLE7=Jimmie Earls - Barney and Thelma Lou
TTITLE8=Jessica Lynn - Crazy Idea
TTITLE9=Todd Allen - Grandma's Tractor
TTITLE10=Todd Allen - Grandma's Tractor [Radio Edit]
TTITLE11=Linde LaChance - Where We'd Be
TTITLE12=Jamie Talbert and The Band Of Demons - Whiskey Drinkin'
TTITLE13=Alan Turner - Radio Liner - My New Single
TTITLE14=Alan Turner - Radio Liner - Today's Best Country
TTITLE15=Alan Turner - Radio Liner - Kickin' Country
TTITLE16=Alan Turner - Radio Liner - Hometown Country
TTITLE17=Alan Turner - Radio Liner - Super Country
TTITLE18=Alan Turner - Radio Liner - Today's Hot Country
TTITLE19=Alan Turner - Radio Liner - Best In Today's Country
TTITLE20=Alan Turner - Radio Liner - More of the Country You Love
TTITLE21=Alan Turner - Radio Liner - Howllin' Country
TTITLE22=Dave McElroy - Radio Liner - My New Single
TTITLE23=Dave McElroy - Radio Liner - Todays Best Country
TTITLE24=Dave McElroy - Radio Liner - Kickin' Country
TTITLE25=Dave McElroy - Radio Liner - Hometown Country
TTITLE26=Dave McElroy - Radio Liner - Super Country
TTITLE27=Dave McElroy - Radio Liner - Today's Hot Country
TTITLE28=Dave McElroy - Radio Liner - Best In Today's Country
TTITLE29=Dave McElroy - Radio Liner - More of the Country You Love
TTITLE30=Dave McElroy - Radio Liner - Howlin' Country
TTITLE31=Melanie Meriney - Radio Liner - My New Single
TTITLE32=Melanie Meriney - Radio Liner - Today's Best Country
TTITLE33=Melanie Meriney - Radio Liner - Kickin' Country
TTITLE34=Melanie Meriney - Radio Liner - Hometown Country
EXTD=
EXTT0=
EXTT1=
EXTT2=
EXTT3=
EXTT4=
EXTT5=
EXTT6=
EXTT7=
EXTT8=
EXTT9=
EXTT10=
EXTT11=
EXTT12=
EXTT13=
EXTT14=
EXTT15=
EXTT16=
EXTT17=
EXTT18=
EXTT19=
EXTT20=
EXTT21=
EXTT22=
EXTT23=
EXTT24=
EXTT25=
EXTT26=
EXTT27=
EXTT28=
EXTT29=
EXTT30=
EXTT31=
EXTT32=
EXTT33=
EXTT34=
PLAYORDER=
